<?xml version="1.0" encoding="UTF-8" standalone="no"?>
<svg
   version="1.1"
   width="818.33606"
   height="801.90454"
   id="svg3"
   sodipodi:docname="heart_eugene_beutel.svg"
   inkscape:version="1.4.2 (ebf0e940d0, 2025-05-08)"
   xmlns:inkscape="http://www.inkscape.org/namespaces/inkscape"
   xmlns:sodipodi="http://sodipodi.sourceforge.net/DTD/sodipodi-0.dtd"
   xmlns="http://www.w3.org/2000/svg"
   xmlns:svg="http://www.w3.org/2000/svg">
  <sodipodi:namedview
     id="namedview3"
     pagecolor="#ffffff"
     bordercolor="#000000"
     borderopacity="0.25"
     inkscape:showpageshadow="2"
     inkscape:pageopacity="0.0"
     inkscape:pagecheckerboard="0"
     inkscape:deskcolor="#d1d1d1"
     inkscape:zoom="0.45554273"
     inkscape:cx="370.98606"
     inkscape:cy="240.37262"
     inkscape:window-width="1680"
     inkscape:window-height="1022"
     inkscape:window-x="1920"
     inkscape:window-y="0"
     inkscape:window-maximized="1"
     inkscape:current-layer="g3" />
  <defs
     id="defs1">
    <clipPath
       id="dhDVRtyJafDJ">
      <path
         fill="none"
         stroke="none"
         d="M 0,0 H 1284 V 866 H 0 Z"
         id="path1" />
    </clipPath>
  </defs>
  <g
     clip-path="url(#dhDVRtyJafDJ)"
     id="g3"
     transform="translate(-127.89608,-21.751582)">
    <g
       id="g2">
      <path
         fill="none"
         stroke="#ff0000"
         paint-order="fill stroke markers"
         d="m 537.97292,108.25 1.16512,-2.70625 2.46054,-2.70625 1.731,-2.70625 2.37042,-2.494087 2.40248,-2.918413 1.61002,-1.406637 1.06746,-1.299613 2.91269,-2.70625 2.90349,-2.70625 1.14136,-0.856175 2.01472,-1.850075 1.99778,-1.498548 1.36,-1.207702 2.6525,-1.951721 0.88779,-0.754529 3.12471,-2.22703 0.59334,-0.47922 3.41916,-2.339655 4.0125,-2.672215 0.55717,-0.40063 3.45533,-2.140393 0.83842,-0.565857 3.17408,-1.858289 1.34234,-0.847961 2.67016,-1.47225 2.09246,-1.234 1.92004,-0.993832 3.11813,-1.712418 0.89437,-0.433276 4.0125,-2.048075 4.0125,-1.927262 2.03625,-1.003887 1.97625,-0.866233 4.0125,-1.817484 4.0125,-1.676396 2.46861,-1.052387 1.54389,-0.589168 4.0125,-1.559615 1.41375,-0.557467 2.59875,-0.919818 4.0125,-1.4286 L 634.97386,43.3 637.9875,42.328326 642,41.041438 l 1.40259,-0.447688 2.60991,-0.75171 4.0125,-1.139311 2.93173,-0.815229 1.08077,-0.271877 4.0125,-0.98978 4.0125,-0.953709 2.14148,-0.490884 1.87102,-0.388819 4.0125,-0.799409 4.0125,-0.753118 4.0125,-0.702726 4.0125,-0.605284 4.0125,-0.547704 4.0125,-0.491681 4.0125,-0.432883 4.0125,-0.371606 4.0125,-0.308146 4.0125,-0.22695 4.0125,-0.164113 4.0125,-0.100778 4.0125,-0.03645 4.0125,0.0286 4.0125,0.0941 4.0125,0.159797 4.0125,0.225446 4.0125,0.309868 4.0125,0.379233 4.0125,0.447045 4.0125,0.513731 4.0125,0.579115 3.01396,0.486489 0.99854,0.166755 4.0125,0.750579 4.0125,0.813717 4.0125,0.874741 4.0125,0.986219 4.0125,1.050947 2.76214,0.769542 1.25036,0.358278 4.0125,1.231065 3.47938,1.116907 0.53312,0.175675 4.0125,1.411973 4.0125,1.478366 4.0125,1.590462 4.0125,1.682363 4.04808,1.779911 3.97692,1.884685 1.67148,0.821565 2.34102,1.17295 2.94878,1.5333 1.06372,0.563276 3.89741,2.142974 4.12759,2.409139 4.0125,2.468855 4.0125,2.596723 4.0125,2.731635 0.87186,0.618648 3.14064,2.254421 4.0125,3.020406 3.57866,2.843923 3.24934,2.70625 1.197,1.009924 1.93077,1.696326 2.08173,1.840575 0.94012,0.865675 2.91836,2.70625 4.16652,4.098818 3.89543,4.019932 4.12957,4.538956 0.76054,0.873547 2.32719,2.70625 0.92477,1.08598 3.51725,4.32652 0.49525,0.62079 1.59083,2.08546 2.06492,2.70625 3.88135,5.4125 0.4879,0.69643 1.34411,2.00982 1.80187,2.70625 0.86652,1.31876 2.54251,4.09374 1.46999,2.383 1.73696,3.0295 1.54615,2.70625 0.72939,1.29909 2.17247,4.11341 1.41627,2.70625 0.42376,0.83045 0.90952,1.8758 1.29268,2.70625 1.28505,2.70625 0.52525,1.13342 0.69157,1.57283 1.16498,2.70625 1.15437,2.70625 1.00158,2.37938 1.1696,3.03312 1.02608,2.70625 1.01253,2.70625 0.80429,2.1922 0.17828,0.51405 0.90191,2.70625 0.88627,2.70625 0.87023,2.70625 0.85374,2.70625 0.32207,1.06026 1.21977,4.35224 0.73064,2.70625 0.71224,2.70625 0.69342,2.70625 0.65643,2.63691 0.61316,2.77559 0.57729,2.70625 0.5573,2.70625 0.53693,2.70625 0.51623,2.70625 0.49516,2.70625 0.47375,2.70625 0.24268,1.47154 0.1901,1.23471 0.38977,2.70625 0.36858,2.70625 0.34715,2.70625 0.3255,2.70625 0.30363,2.70625 0.28159,2.70625 0.25934,2.70625 0.23695,2.70625 0.21441,2.70625 0.19174,2.70625 0.16898,2.70625 0.14613,2.70625 0.12322,2.70625 0.1003,2.70625 0.0774,2.70625 0.0544,2.70625 0.0316,2.70625 0.009,2.70625 m -803.33604,0 0.008,-2.70625 0.0289,-2.70625 0.0502,-2.70625 0.0715,-2.70625 0.0929,-2.70625 0.11439,-2.70625 0.13589,-2.70625 0.15736,-2.70625 0.17881,-2.70625 0.19109,-2.5797 0.25534,-2.8328 0.26815,-2.70625 0.2909,-2.70625 0.31345,-2.70625 0.33577,-2.70625 0.35786,-2.70625 0.37969,-2.70625 0.40128,-2.70625 0.42259,-2.70625 0.44362,-2.70625 0.46437,-2.70625 0.52435,-2.70625 0.55315,-2.70625 0.57371,-2.70625 0.59389,-2.70625 0.6137,-2.70625 0.63313,-2.70625 0.60005,-2.48436 0.79002,-2.92814 0.7514,-2.70625 0.76937,-2.70625 0.78692,-2.70625 0.80407,-2.70625 0.88473,-2.70625 0.91069,-2.70625 0.92611,-2.70625 0.94112,-2.70625 0.46057,-1.28466 0.53889,-1.42159 1.05386,-2.70625 1.06663,-2.70625 1.07901,-2.70625 0.27411,-0.66505 0.88751,-2.0412 1.19569,-2.70625 1.20539,-2.70625 0.72391,-1.59303 0.53289,-1.11322 1.32654,-2.70625 1.33317,-2.70625 0.8199,-1.63661 0.56364,-1.06964 1.45734,-2.70625 1.46055,-2.70625 0.53097,-0.96226 1.01062,-1.74399 1.5862,-2.70625 1.41568,-2.40757 1.90006,-3.00493 1.71133,-2.70625 0.40111,-0.62019 1.41357,-2.08606 1.83944,-2.70625 0.75949,-1.10075 1.15972,-1.6055 1.96913,-2.70625 0.88365,-1.19979 1.16061,-1.50646 2.09932,-2.70625 0.75257,-0.95696 1.43776,-1.74929 2.22886,-2.70625 2.35766,-2.70625 2.00072,-2.284898 2.90204,-3.127605 1.11046,-1.186607 1.48343,-1.519643 2.52907,-2.585356 2.93718,-2.827144 1.07532,-1.02842 1.82784,-1.67783 2.18466,-1.994741 0.8118,-0.711509 3.11205,-2.70625 3.29073,-2.70625 0.81042,-0.6603 2.6122,-2.04595 1.4003,-1.086414 2.17141,-1.619836 1.84109,-1.358802 1.89828,-1.347448 2.11422,-1.482954 1.81281,-1.223296 2.19969,-1.465079 1.93635,-1.241171 2.07615,-1.311993 2.29169,-1.394257 1.72081,-1.031025 2.90294,-1.675225 1.10956,-0.629901 3.79554,-2.076349 4.22946,-2.175326 1.07673,-0.530924 2.93577,-1.419569 2.76057,-1.286681 1.25193,-0.57168 4.0125,-1.753065 0.91767,-0.381505 3.09483,-1.257907 3.6944,-1.448343 4.3306,-1.565374 3.29764,-1.140876 0.71486,-0.241128 4.0125,-1.266561 3.96173,-1.198561 4.06327,-1.104442 4.0125,-1.032992 2.37484,-0.568816 1.63766,-0.380551 4.0125,-0.855883 4.0125,-0.794187 3.7199,-0.675629 4.3051,-0.674609 4.0125,-0.55881 4.0125,-0.493 4.0125,-0.425942 4.0125,-0.357819 2.74718,-0.19607 1.26532,-0.08681 4.0125,-0.204927 4.0125,-0.139236 4.0125,-0.07357 4.0125,-0.0082 4.0125,0.05667 4.0125,0.120713 4.0125,0.183681 2.50173,0.151668 1.51077,0.100588 4.0125,0.328216 4.0125,0.391025 4.0125,0.451559 4.0125,0.50952 4.0125,0.564617 2.36579,0.360725 1.64671,0.276374 4.0125,0.718917 4.0125,0.768052 4.0125,0.813013 0.61923,0.129894 3.39327,0.785063 4.0125,0.965556 3.83716,0.955631 4.18784,1.168931 4.0125,1.146854 1.3548,0.390465 2.6577,0.848708 4.0125,1.291039 1.76097,0.566503 2.25153,0.804618 4.0125,1.428542 1.34335,0.47309 2.66915,1.046977 4.0125,1.554475 4.0125,1.684574 4.0125,1.722692 4.72379,2.110032 3.30121,1.606949 2.35293,1.099301 1.65957,0.875564 3.64067,1.830686 4.38433,2.376774 4.0125,2.272539 4.0125,2.366172 1.93301,1.103265 2.07949,1.367589 4.0125,2.587695 2.30636,1.457216 1.70614,1.260441 4.0125,2.861295 1.89005,1.290764 2.12245,1.727481 1.39815,0.978769 2.61435,2.207472 0.70555,0.498778 3.12718,2.70625 3.06315,2.70625 1.12912,1.253355 1.71881,1.452895 2.29369,2.539043 2.80075,2.873457 1.21175,1.815065 1.05379,0.891189 2.0678,2.70625 0.89091,2.01497 m -398.26642,168.47878 0.0131,2.70625 0.0339,2.70625 0.0544,2.70625 0.0746,2.70625 0.0946,2.70625 0.11417,2.70625 0.1334,2.70625 0.15223,2.70625 0.17059,2.70625 0.18801,2.69982 0.23449,2.71268 0.25366,2.70625 0.27274,2.70625 0.29114,2.70625 0.30883,2.70625 0.32575,2.70625 0.34186,2.70625 0.3571,2.70625 0.37143,2.70625 0.3848,2.70625 0.39718,2.70625 0.40849,2.70625 0.97695,5.4125 0.51053,2.70625 0.5199,2.70625 0.52786,2.70625 0.53438,2.70625 0.5394,2.70625 0.46851,2.34277 0.73894,3.06973 0.65289,2.70625 0.65357,2.70625 0.65234,2.70625 0.64918,2.70625 0.64408,2.70625 1.54685,5.4125 0.76111,2.70625 0.74811,2.70625 0.73276,2.70625 0.24517,0.94171 1.47356,4.47079 0.85605,2.70625 0.82885,2.70625 0.79898,2.70625 1.95404,5.4125 0.92073,2.70625 0.8735,2.70625 0.31929,1.0633 1.76499,4.3492 0.99977,2.70625 0.92761,2.70625 0.32013,1.02914 1.9452,4.38336 1.04926,2.70625 0.94075,2.70625 2.51823,5.4125 1.0346,2.70625 0.53696,1.67814 0.65533,1.02811 1.41018,2.70625 1.13499,2.70625 0.812,2.50846 1.96688,2.90404 1.23594,2.70625 0.76718,2.70625 3.90119,5.4125 0.15332,2.70625 0.15485,2.70625 1.03095,2.70625 m 704.3967,-2.70625 0.43562,-2.70625 0.18237,-1.50939 0.0289,-1.19686 0.48792,-2.70625 1.31763,-2.70625 2.1781,-2.34852 0.91494,-3.06398 1.2309,-2.70625 1.66286,-2.70625 1.01429,-2.70625 1.1169,-2.70625 1.34914,-2.70625 0.73597,-1.23671 0.46849,-1.46954 1.01333,-2.70625 1.15753,-2.70625 1.30178,-2.70625 0.9448,-2.70625 1.01464,-2.70625 1.10879,-2.70625 1.01564,-2.28132 1.02568,-3.13118 0.96153,-2.70625 1.02274,-2.70625 1.00255,-2.50604 0.89871,-2.90646 0.88277,-2.70625 0.92175,-2.70625 0.95769,-2.70625 0.35158,-0.94534 0.49483,-1.76091 0.79277,-2.70625 0.81645,-2.70625 0.83749,-2.70625 0.85581,-2.70625 0.21515,-0.65576 0.52678,-2.05049 0.71214,-2.70625 0.72291,-2.70625 0.73146,-2.70625 0.73773,-2.70625 0.58148,-2.11001 0.13232,-0.59624 0.61511,-2.70625 0.61692,-2.70625 0.61691,-2.70625 0.61512,-2.70625 0.61157,-2.70625 0.60629,-2.70625 0.19826,-0.88032 0.33961,-1.82593 0.50151,-2.70625 0.4944,-2.70625 0.48595,-2.70625 0.4762,-2.70625 0.46517,-2.70625 0.45293,-2.70625 0.43953,-2.70625 0.3572,-2.26537 0.41368,-3.14713 0.34156,-2.70625 0.32726,-2.70625 0.31209,-2.70625 0.29612,-2.70625 0.27941,-2.70625 0.26198,-2.70625 0.24389,-2.70625 0.22517,-2.70625 0.20588,-2.70625 0.18607,-2.70625 0.16578,-2.70625 0.14504,-2.70625 0.12392,-2.70625 0.10243,-2.70625 0.0806,-2.70625 0.0586,-2.70625 0.0363,-2.70625 0.0138,-2.70625 m -750.14462,200.26424 0.86384,2.70451 1.45575,2.70625 1.69291,2.06219 1.40283,3.35031 1.63873,2.70625 0.97094,1.22871 0.6172,1.47754 1.43311,2.70625 1.79918,2.70625 3.04615,5.4125 1.12936,1.57541 2.11223,3.83709 1.82473,2.70625 3.29843,5.4125 0.78961,1.07622 0.9203,1.63003 1.724,2.70625 1.3682,1.90781 0.45694,0.79844 1.71732,2.70625 1.83824,2.58391 1.79916,2.82859 1.92278,2.70625 3.73733,5.4125 0.56573,0.72992 3.26915,4.68258 0.74335,0.95085 1.1926,1.7554 1.99316,2.70625 0.82674,1.04376 3.19557,4.36874 0.81693,1.0146 3.29903,4.3979 0.71347,0.86958 3.49761,4.54292 0.51489,0.61473 1.59121,2.09152 2.20233,2.70625 2.13989,2.70625 2.09157,2.49934 2.34931,2.91316 1.66319,1.93623 0.61406,0.77002 2.26611,2.70625 1.13233,1.28407 1.17114,1.42218 2.34634,2.70625 0.49502,0.54684 1.83528,2.15941 2.17722,2.43018 2.61089,2.98232 1.40161,1.52168 3.50235,3.89082 0.51015,0.53901 4.0125,4.35282 0.46905,0.52067 2.52409,2.70625 1.01936,1.05224 4.0125,4.21128 2.73408,2.85523 1.27842,1.28516 1.36561,1.42109 2.64689,2.65613 2.72748,2.75637 1.28502,1.25551 1.4432,1.45074 2.5693,2.50065 2.97951,2.91185 1.03299,0.97991 1.77863,1.72634 2.23387,2.10756 0.62181,0.59869 2.87694,2.70625 0.51375,0.47308 4.0125,3.7245 4.0125,3.67013 3.26469,2.95729 0.74781,0.66385 2.27562,2.0424 1.73688,1.52905 1.32553,1.1772 2.68697,2.34394 3.53603,3.06856 4.48897,3.84006 4.0125,3.38647 4.0125,3.3416 3.59675,2.96312 4.42825,3.60488 2.2438,1.80762 1.7687,1.41673 4.0125,3.18502 1.0317,0.81075 2.9808,2.33624 3.96782,3.07626 3.52216,2.70625 0.53502,0.41173 4.0125,3.0493 4.0125,3.01666 2.21252,1.64106 1.79998,1.34429 1.85779,1.36196 2.15471,1.59343 4.0125,2.92681 4.0125,2.89963 0.98651,0.69888 3.02599,2.17501 0.75817,0.53124 3.25433,2.31836 4.0125,2.82683 4.0125,2.8056 4.0125,2.78599 4.0125,2.76805 3.98416,2.73267 3.96591,2.70625 3.98396,2.70625 3.99917,2.70625 4.1293,2.78932 3.90151,2.62318 4.02403,2.70625 4.02396,2.70625 4.1005,2.76444 3.92691,2.64806 3.99195,2.70625 3.96888,2.70625 4.16226,2.87256 3.67692,2.53994 3.85391,2.70625 3.79788,2.70625 0.70879,0.55518 4.0125,2.94285 2.66298,1.91447 1.34952,1.10355 2.21054,1.6027 1.80196,1.5068 1.64691,1.19945 2.36559,2.0197 4.0125,3.34694 3.17793,2.75211 0.83457,0.91162 4.0125,3.91059 3.2669,3.29654 0.7456,1.16245 1.6985,1.5438 1.86849,2.70625 0.44551,1.18458 2.1949,1.52167 m 1.8176,4.28113 0.10393,-1.57488 0.84741,-2.70625 2.06064,-2.70625 1.00052,-0.71747 1.11912,-1.98878 2.43248,-2.70625 2.3961,-2.70625 2.0773,-1.84679 0.71233,-0.85946 2.91807,-2.70625 2.9871,-2.70625 1.4075,-1.07097 1.78763,-1.63528 2.22487,-1.7038 1.12281,-1.00245 2.88969,-2.20202 0.58011,-0.50423 3.43239,-2.58815 3.77481,-2.82435 3.70905,-2.70625 0.54114,-0.35691 3.24304,-2.34934 0.76946,-0.50532 3.0765,-2.20093 0.936,-0.61202 2.96045,-2.09423 1.05205,-0.6852 2.88503,-2.02105 1.12747,-0.73199 2.84149,-1.97426 1.17101,-0.75854 2.82202,-1.94771 1.19048,-0.7702 2.81957,-1.93605 1.19293,-0.77166 2.82781,-1.93459 1.18469,-0.76701 2.84106,-1.93924 1.17144,-0.75992 2.85421,-1.94633 1.15829,-0.75361 2.86269,-1.95264 1.14981,-0.75103 2.86246,-1.95522 1.15004,-0.75481 2.84991,-1.95144 1.16259,-0.76738 2.82186,-1.93887 1.19064,-0.79097 2.77554,-1.91528 1.23696,-0.82766 2.70849,-1.87859 1.30401,-0.87937 2.61859,-1.82688 1.39391,-0.94793 2.504,-1.75832 1.5085,-1.03507 2.36312,-1.67118 1.64938,-1.14244 2.19456,-1.56381 1.81794,-1.27164 1.99713,-1.43461 2.01537,-1.42418 1.7698,-1.28207 2.2427,-1.60155 1.51166,-1.1047 2.50084,-1.80519 1.22192,-0.90106 2.79058,-2.03651 0.89988,-0.66974 3.11262,-2.2969 0.54487,-0.40935 3.46763,-2.5877 3.74692,-2.8248 3.55789,-2.70625 0.72019,-0.54728 2.80436,-2.15897 1.20814,-0.92973 2.28266,-1.77652 1.72984,-1.34792 1.7267,-1.35833 2.2858,-1.80318 1.13595,-0.90307 2.87655,-2.29678 0.5098,-0.40947 3.35249,-2.70625 3.32538,-2.70625 0.83733,-0.68733 2.45359,-2.01892 1.55891,-1.29549 1.69672,-1.41076 2.31578,-1.94746 0.90356,-0.75879 3.10894,-2.6444 3.23607,-2.7681 0.77643,-0.67417 2.35271,-2.03208 1.65979,-1.45765 1.43225,-1.2486 2.58025,-2.29035 3.50224,-3.12215 0.51026,-0.4638 2.49585,-2.24245 1.51665,-1.39277 1.45029,-1.31348 2.56221,-2.37507 3.27383,-3.03743 0.73867,-0.70282 2.1451,-2.00343 1.8674,-1.79192 0.97319,-0.91433 2.80466,-2.70625 2.80295,-2.70625 1.4442,-1.43535 1.31305,-1.2709 2.69945,-2.69879 2.73054,-2.71371 1.28196,-1.31941 1.39183,-1.38684 2.6189,-2.70625 2.64292,-2.70625 1.37135,-1.46018 1.21676,-1.24607 2.54301,-2.70625 2.55968,-2.70625 1.70555,-1.87521 0.79174,-0.83104 2.48128,-2.70625 0.73948,-0.83902 1.7308,-1.86723 2.2817,-2.58245 2.55205,-2.83005 1.46045,-1.7054 0.90971,-1.00085 2.35026,-2.70625 0.75253,-0.90731 1.59171,-1.79894 2.26731,-2.70625 2.31927,-2.70625 1.84671,-2.27634 2.63612,-3.13616 1.37638,-1.74995 0.81732,-0.9563 2.18941,-2.70625 1.00577,-1.31913 1.15775,-1.38712 2.12374,-2.70625 0.73101,-0.989 1.40099,-1.71725 2.06302,-2.70625 0.54849,-0.76525 1.54988,-1.941 2.00773,-2.70625 0.45489,-0.65413 1.60672,-2.05212 1.95851,-2.70625 0.44727,-0.6623 1.5731,-2.04395 1.91621,-2.70625 0.52319,-0.79664 1.44961,-1.90961 1.88201,-2.70625 0.68088,-1.06385 1.23539,-1.6424 1.85764,-2.70625 0.91947,-1.46984 0.92737,-1.23641 1.84563,-2.70625 1.2395,-2.01851 0.5189,-0.68774 1.84994,-2.70625 1.64152,-2.70625 1.87634,-2.70625 1.64734,-2.70625 0.49096,-0.91 1.27601,-1.79625 1.6779,-2.70625 1.05859,-1.97169 0.5476,-0.73456 1.74775,-2.70625 1.47615,-2.70625 0.241,-0.51894 1.51819,-2.18731 1.55379,-2.70625 0.94052,-2.00386 0.55273,-0.70239 1.72402,-2.70625 1.34367,-2.70625 0.39208,-1.02511 1.31067,-1.68114 1.554,-2.70625 1.08599,-2.70625 2.11875,-2.70625 1.33044,-2.70625 0.62515,-2.51268"
         stroke-opacity="0.8"
         stroke-linecap="round"
         stroke-linejoin="round"
         stroke-miterlimit="10"
         stroke-width="2.5"
         id="path2"
         style="stroke-width:15;stroke-dasharray:none" />
    </g>
  </g>
</svg>
